<?xml version="1.0" standalone="no"?>
<!DOCTYPE svg PUBLIC "-//W3C//DTD SVG 20010904//EN"
 "http://www.w3.org/TR/2001/REC-SVG-20010904/DTD/svg10.dtd">
<svg version="1.0" xmlns="http://www.w3.org/2000/svg"
 width="5580.000000pt" height="1770.000000pt" viewBox="0 0 5580.000000 1770.000000"
 preserveAspectRatio="xMidYMid meet">
<metadata>
Created by potrace 1.15, written by Peter Selinger 2001-2017
</metadata>
<g transform="translate(0.000000,1770.000000) scale(0.100000,-0.100000)"
fill="#000000" stroke="none">
<path d="M697 15519 c-120 -18 -170 -69 -187 -191 -13 -88 -13 -10309 0
-10496 11 -167 34 -286 91 -472 248 -821 726 -1527 1394 -2059 555 -443 1189
-707 1921 -801 310 -40 459 -41 3789 -38 2920 4 3224 6 3360 21 211 23 366 51
544 98 858 223 1558 670 2079 1328 151 191 277 384 535 821 51 85 99 156 108
158 11 2 47 -45 115 -150 54 -84 107 -169 118 -188 10 -19 26 -44 36 -55 9
-11 76 -108 148 -215 284 -426 410 -588 603 -776 251 -243 567 -460 914 -625
553 -263 999 -372 1673 -410 255 -14 4412 -6 5327 10 1256 23 1538 30 1654 46
565 73 1008 251 1581 635 202 135 317 226 448 354 148 144 181 186 422 531
112 160 220 310 240 335 21 25 39 50 41 57 5 16 312 452 319 453 5 0 180 -271
230 -356 91 -156 398 -599 505 -729 101 -122 326 -343 458 -449 118 -94 270
-201 427 -301 576 -364 1175 -541 1985 -585 297 -17 6516 -8 6680 9 304 31
511 71 770 148 287 85 625 230 861 368 529 310 1009 782 1359 1336 85 134 238
441 295 591 25 65 48 118 51 118 4 0 19 -43 34 -96 68 -243 269 -618 478 -896
120 -161 219 -273 381 -433 589 -582 1266 -945 2021 -1084 323 -59 382 -61
1722 -62 1670 0 5769 31 5908 45 75 7 270 47 401 81 228 59 440 142 695 271
414 209 754 458 1079 790 578 590 959 1304 1065 1994 8 58 20 132 25 165 5 33
12 92 15 132 11 135 7 6766 -5 6943 -18 285 -52 504 -115 745 -119 458 -336
909 -618 1288 -307 413 -752 814 -1207 1089 -118 71 -400 214 -465 236 -33 12
-98 35 -145 52 -90 33 -318 103 -410 125 -65 16 -339 61 -460 75 -240 29 -655
31 -5490 28 l-4945 -3 -45 -21 c-53 -25 -83 -55 -107 -109 -17 -37 -18 -103
-23 -969 l-5 -930 -52 59 c-29 32 -69 90 -89 128 -55 104 -181 289 -272 397
-183 219 -478 481 -851 759 -367 273 -657 416 -1096 543 -194 56 -329 81 -606
114 -253 29 -898 35 -3754 32 -2531 -3 -2855 -6 -3070 -21 -132 -9 -313 -21
-402 -27 -411 -26 -801 -142 -1298 -385 -278 -136 -500 -279 -729 -471 -365
-305 -728 -744 -950 -1149 -36 -66 -70 -127 -76 -135 -6 -8 -47 -89 -93 -179
-45 -91 -86 -164 -91 -163 -5 0 -27 45 -48 99 -51 127 -89 204 -192 390 -199
358 -437 667 -748 968 -110 108 -144 136 -388 320 -556 421 -1220 677 -1900
735 -132 11 -2511 15 -3175 5 -198 -3 -778 -7 -1290 -10 -1360 -7 -2633 -23
-2770 -36 -503 -44 -950 -205 -1400 -504 -610 -404 -1077 -855 -1364 -1316
-58 -93 -213 -379 -206 -379 2 0 -12 -35 -29 -77 -18 -43 -41 -102 -50 -130
-10 -29 -21 -55 -26 -58 -11 -7 -87 127 -149 267 -125 278 -314 569 -542 834
-118 136 -392 409 -525 523 -289 246 -654 471 -985 607 -300 123 -703 232
-921 249 -34 3 -101 10 -148 17 -47 6 -112 13 -145 15 -128 9 -10192 11
-10248 2z m9143 -449 c1087 -8 1088 -8 1395 -60 974 -166 1854 -740 2345
-1531 292 -470 455 -980 516 -1614 22 -223 32 -1511 33 -3880 0 -2064 -8
-2760 -33 -2975 -80 -671 -269 -1151 -634 -1607 -48 -59 -175 -210 -282 -334
-107 -124 -228 -265 -269 -313 -267 -317 -672 -528 -1311 -684 -349 -86 -497
-101 -1090 -112 -2655 -51 -6100 -59 -6480 -16 -288 33 -585 95 -815 172 -754
248 -1382 766 -1778 1464 -75 134 -107 199 -176 365 -179 428 -245 697 -293
1190 -9 89 -12 1384 -15 5020 -2 2694 -1 4905 1 4912 4 11 724 13 3933 12
2160 -1 4389 -5 4953 -9z m14605 -9 c400 -33 770 -112 1085 -231 718 -273
1272 -699 1615 -1245 31 -49 105 -187 164 -305 207 -418 309 -728 356 -1084 8
-64 20 -126 25 -137 10 -18 24 -19 270 -19 240 0 260 1 269 18 5 10 23 92 40
183 50 270 123 500 267 836 162 380 304 624 487 841 97 115 200 209 352 322
611 454 1116 684 1636 744 143 17 539 51 779 66 395 26 4428 40 5725 20 575
-9 621 -12 882 -55 532 -89 1086 -302 1492 -573 241 -161 510 -407 685 -627
374 -469 635 -1039 740 -1615 65 -353 60 -94 64 -3560 3 -3194 1 -3417 -34
-3693 -32 -255 -100 -538 -180 -754 -173 -466 -566 -1040 -948 -1382 -572
-513 -1216 -791 -1951 -840 -154 -11 -1073 -24 -2750 -41 -1271 -13 -3785 -13
-3995 0 -833 51 -1489 284 -2050 730 -139 110 -393 366 -511 515 -255 321
-316 412 -474 705 -90 166 -194 454 -230 631 -12 64 -35 342 -35 437 l0 32
-265 0 c-255 0 -265 -1 -265 -19 0 -37 -51 -297 -86 -436 -172 -690 -464
-1215 -920 -1655 -408 -394 -881 -658 -1424 -794 -461 -116 -1149 -169 -2195
-169 -3293 0 -4753 4 -4968 13 -249 10 -585 40 -687 60 -30 6 -64 13 -75 15
-171 32 -486 126 -608 183 -265 121 -465 236 -787 453 -308 207 -464 346 -632
563 -290 374 -554 929 -652 1366 -59 267 -57 211 -66 1470 -5 641 -16 1561
-25 2045 -22 1191 -32 3418 -16 3637 70 959 427 1768 1060 2398 472 471 1033
734 1901 894 305 56 354 59 1125 66 1088 11 5654 3 5810 -9z m27265 -1 c517
-40 839 -124 1265 -330 479 -231 866 -513 1141 -833 188 -219 283 -368 468
-737 181 -361 256 -565 316 -859 66 -326 62 -135 67 -3176 5 -2946 -3 -4016
-32 -4230 -22 -164 -59 -346 -101 -495 -185 -651 -614 -1317 -1119 -1736 -107
-88 -335 -239 -465 -308 -419 -220 -1117 -387 -1780 -426 -350 -20 -2920 -32
-4452 -20 -799 5 -1532 15 -1628 20 -400 23 -796 82 -1175 176 -294 73 -573
200 -863 394 -371 249 -638 498 -874 817 -367 494 -607 1155 -668 1838 -12
135 -28 9879 -16 9910 6 17 213 18 4894 12 3286 -4 4931 -10 5022 -17z"/>
<path d="M4312 11859 c-95 -16 -150 -61 -174 -142 -10 -34 -13 -507 -13 -2352
0 -2175 1 -2318 18 -2443 45 -332 142 -604 297 -837 184 -277 390 -491 629
-653 210 -143 425 -230 683 -278 128 -24 568 -33 1653 -33 1097 0 1695 11
1853 34 347 50 575 148 877 374 150 113 366 334 452 461 228 340 338 680 363
1129 12 220 12 2411 0 2696 -10 237 -28 378 -71 543 -98 380 -336 756 -652
1028 -235 202 -495 343 -772 419 -243 66 -104 63 -2720 63 -1382 0 -2392 -4
-2423 -9z m4763 -459 c214 -25 379 -71 550 -154 144 -71 266 -159 384 -277
267 -267 411 -584 440 -968 38 -491 67 -2597 41 -2886 -24 -259 -79 -458 -190
-680 -87 -175 -195 -322 -345 -470 -221 -218 -442 -340 -680 -375 -133 -19
-1715 -60 -2320 -60 -448 0 -926 16 -1047 35 -489 74 -838 303 -1070 699 -82
140 -165 360 -212 569 -47 202 -46 169 -46 2400 0 1156 3 2119 6 2140 l7 37
2196 0 c1437 0 2227 -4 2286 -10z"/>
<path d="M19482 11853 c-391 -53 -793 -260 -1139 -588 -389 -367 -592 -814
-604 -1330 -7 -290 12 -2947 22 -3040 42 -411 171 -719 425 -1021 313 -372
661 -605 1050 -702 218 -55 195 -54 1974 -50 1799 5 1746 3 1956 64 187 53
304 119 514 287 495 397 770 850 845 1392 29 211 25 3046 -5 3260 -50 359
-165 639 -383 931 -341 457 -830 746 -1363 804 -152 16 -3166 10 -3292 -7z
m2948 -443 c340 -12 513 -39 715 -110 355 -126 600 -363 800 -775 94 -193 141
-320 154 -420 7 -53 12 -599 13 -1610 l3 -1530 -22 -101 c-106 -476 -411 -893
-827 -1132 -106 -61 -241 -116 -333 -136 -37 -8 -99 -22 -138 -30 -146 -33
-394 -37 -1735 -33 -958 3 -1337 7 -1395 16 -444 67 -721 195 -981 455 -218
218 -361 479 -454 828 -63 239 -63 224 -67 1428 -6 1409 4 1608 92 1948 117
447 376 821 698 1006 26 16 47 34 47 42 0 8 4 14 10 14 12 0 60 48 60 60 0 6
31 10 69 10 49 0 72 4 81 15 7 8 20 15 30 15 10 0 20 7 24 15 5 13 117 15 918
16 502 1 987 5 1078 9 251 10 885 10 1160 0z"/>
<path d="M33160 11863 c-95 -9 -200 -26 -245 -40 -245 -74 -346 -116 -493
-205 -201 -121 -446 -329 -587 -497 -253 -304 -393 -630 -446 -1036 -15 -115
-13 -2919 2 -3100 22 -267 64 -444 155 -646 259 -580 761 -1022 1322 -1164
218 -55 176 -54 1902 -51 1723 3 1688 2 1918 56 314 74 607 245 873 510 318
317 522 696 596 1110 12 68 16 146 16 275 -1 99 -2 810 -2 1580 -2 1520 -1
1516 -57 1745 -66 269 -171 464 -377 698 -402 458 -831 706 -1312 762 -82 9
-3171 13 -3265 3z m3072 -463 c257 -14 528 -75 690 -156 302 -151 525 -431
702 -880 97 -248 91 -118 91 -1804 0 -1151 -3 -1496 -13 -1570 -72 -529 -284
-886 -681 -1151 -267 -178 -555 -273 -901 -299 -98 -8 -572 -10 -1465 -8
-1199 4 -1330 6 -1425 21 -390 65 -682 206 -942 455 -279 268 -397 522 -412
892 -19 426 -46 2760 -35 2965 19 378 107 659 288 923 242 353 534 540 894
572 117 10 917 36 1552 50 427 10 1398 4 1657 -10z"/>
<path d="M45155 11864 c-73 -18 -137 -59 -160 -103 -36 -71 -36 96 -5 -3401
13 -1425 18 -1595 54 -1750 75 -329 266 -641 586 -960 314 -312 665 -474 1124
-519 147 -15 3083 -15 3227 -1 503 50 884 240 1244 621 307 324 486 690 552
1125 17 111 18 225 18 1654 0 1419 -1 1543 -18 1646 -86 547 -478 1113 -978
1415 -193 116 -434 209 -651 250 l-113 21 -2430 3 c-1336 2 -2439 1 -2450 -1z
m4630 -454 c485 -27 803 -162 1090 -462 209 -218 346 -462 400 -713 16 -74 26
-274 47 -960 17 -568 17 -2168 0 -2295 -59 -432 -190 -725 -431 -965 -121
-119 -239 -202 -416 -290 -225 -112 -407 -165 -637 -185 -147 -13 -2698 -13
-2868 0 -229 17 -456 82 -658 186 -216 111 -384 249 -515 422 -129 172 -196
328 -276 638 -54 213 -79 361 -90 551 -15 244 -22 1695 -15 2944 l7 1129 2021
3 c1112 1 2055 3 2096 4 41 2 152 -2 245 -7z"/>
</g>
</svg>
